<?xml version="1.0" standalone="no"?><!DOCTYPE svg PUBLIC "-//W3C//DTD SVG 1.1//EN" "http://www.w3.org/Graphics/SVG/1.1/DTD/svg11.dtd"><svg t="1575872680865" class="icon" viewBox="0 0 1024 1024" version="1.1" xmlns="http://www.w3.org/2000/svg" p-id="1973" xmlns:xlink="http://www.w3.org/1999/xlink" width="64" height="64"><defs><style type="text/css"></style></defs><path d="M1023 1024H1l122.222-440H412v80H184.029l-77.778 280h811.497l-77.777-280H604.268v-80h296.509z" fill="#00CDCD" p-id="1974"></path><path d="M512 267.509m-40 0a40 40 0 1 0 80 0 40 40 0 1 0-80 0Z" fill="#00CDCD" p-id="1975"></path><path d="M512 803.96l-31.212-38.944c-2.601-3.244-64.41-80.564-127.23-176.293-37.25-56.764-67.036-108.174-88.533-152.804C236.074 375.812 222 328.081 222 290c0-77.462 30.165-150.287 84.939-205.061C361.713 30.165 434.538 0 512 0s150.287 30.165 205.061 84.939C771.835 139.712 802 212.538 802 290c0 38.082-14.073 85.812-43.025 145.919-21.496 44.63-51.283 96.04-88.532 152.804-62.82 95.729-124.63 173.049-127.23 176.293L512 803.96zM512 80c-115.794 0-210 94.205-210 210 0 27.764 15.388 97.79 118.442 254.832 33.863 51.603 67.928 98.305 91.555 129.67 23.726-31.497 57.96-78.435 91.894-130.178C706.656 387.621 722 317.72 722 290c0-115.795-94.206-210-210-210z" fill="#6A7C97" p-id="1976"></path></svg>