<?xml version="1.0" standalone="no"?><!DOCTYPE svg PUBLIC "-//W3C//DTD SVG 1.1//EN" "http://www.w3.org/Graphics/SVG/1.1/DTD/svg11.dtd"><svg t="1575873415829" class="icon" viewBox="0 0 1024 1024" version="1.1" xmlns="http://www.w3.org/2000/svg" p-id="4449" xmlns:xlink="http://www.w3.org/1999/xlink" width="64" height="64"><defs><style type="text/css"></style></defs><path d="M113.777778 512a398.222222 398.222222 0 1 0 398.222222-398.222222 398.222222 398.222222 0 0 0-398.222222 398.222222z" fill="#FC6A6A" p-id="4450"></path><path d="M722.656076 310.78775a29.19001 29.19001 0 0 1 0 40.260525l-362.028417 362.028417a28.467037 28.467037 0 0 1-40.260525-40.260524l362.209161-362.028418a29.19001 29.19001 0 0 1 40.079781 0z" fill="#FFFFFF" p-id="4451"></path><path d="M320.321949 310.742565a29.19001 29.19001 0 0 1 40.260524 0l362.028417 362.028417a28.467037 28.467037 0 0 1-40.260524 40.260524L320.321949 351.003089a29.19001 29.19001 0 0 1 0-40.260524z" fill="#FFFFFF" p-id="4452"></path></svg>