<?xml version="1.0" standalone="no"?><!DOCTYPE svg PUBLIC "-//W3C//DTD SVG 1.1//EN" "http://www.w3.org/Graphics/SVG/1.1/DTD/svg11.dtd"><svg t="1575795626815" class="icon" viewBox="0 0 1024 1024" version="1.1" xmlns="http://www.w3.org/2000/svg" p-id="5001" xmlns:xlink="http://www.w3.org/1999/xlink" width="64" height="64"><defs><style type="text/css"></style></defs><path d="M268.73344 94.63808h486.81472a97.21344 97.21344 0 0 1 78.75072 40.22272l166.60992 230.22592c28.00128 38.6816 23.74656 91.97568-10.03008 125.72672l-410.25536 410.08128c-37.89824 37.888-99.31776 37.95456-137.29792 0.14336L33.28 492.89728C-0.5376 459.24352-4.92032 406.016 22.92736 367.27808l166.88128-232.17664a97.19808 97.19808 0 0 1 78.9248-40.46336z" fill="#FFB800" p-id="5002"></path><path d="M855.08608 165.15072l-19.712-28.46208c-18.16064-26.14272-46.99136-41.61536-78.83264-41.61536H266.54208c-31.95392 0-61.23008 18.59072-79.39072 44.89728L17.43872 375.37792C1.16736 399.42656 1.536 434.06336 13.056 462.43328c6.31808 15.54944 16.48128 27.24864 27.91936 38.86592l362.43456 359.15264 451.67616-695.30112z" fill="#F9C85D" p-id="5003"></path><path d="M322.26816 266.62912h50.64704l43.51488 265.82528 111.81056-265.51808h103.39328L467.75296 656.128h-31.09376l-73.53856 0.0512-54.63552-333.89568H253.6192v-55.6544h68.64896zM595.68128 487.07072v-51.0208a397.11232 397.11232 0 0 0 65.60256-37.90336h52.48v258.02752h-56.85248V453.54496c-18.47808 13.62432-38.8864 24.7808-61.23008 33.52576z" fill="#FFFFFF" p-id="5004"></path></svg>