<?xml version="1.0" standalone="no"?><!DOCTYPE svg PUBLIC "-//W3C//DTD SVG 1.1//EN" "http://www.w3.org/Graphics/SVG/1.1/DTD/svg11.dtd"><svg t="1575871981299" class="icon" viewBox="0 0 1024 1024" version="1.1" xmlns="http://www.w3.org/2000/svg" p-id="1119" xmlns:xlink="http://www.w3.org/1999/xlink" width="64" height="64"><defs><style type="text/css"></style></defs><path d="M471.067834 542.699125m-246.002319 0a246.002318 246.002318 0 1 0 492.004637 0 246.002318 246.002318 0 1 0-492.004637 0Z" fill="#3CACF8" p-id="1120"></path><path d="M367.519687 453.569333a25.429108 25.429108 0 0 1-3.724828-50.592157 231.062078 231.062078 0 0 1 33.840669-2.476397 25.429108 25.429108 0 1 1 0 50.86845 177.10325 177.10325 0 0 0-26.380781 1.872647 28.86741 28.86741 0 0 1-3.745293 0.327457zM194.202662 654.740696A25.418875 25.418875 0 0 1 168.773554 629.332054a228.98477 228.98477 0 0 1 99.434465-188.758684 25.429108 25.429108 0 1 1 28.816245 41.95547A178.136787 178.136787 0 0 0 219.63177 629.332054a25.418875 25.418875 0 0 1-25.439341 25.429108zM624.236 425.193109a25.429108 25.429108 0 0 1-18.020387-43.418796L875.968821 112.041572a25.429108 25.429108 0 1 1 35.948675 35.958908L642.215453 417.79462a25.347244 25.347244 0 0 1-17.979453 7.398489z m0 0" fill="" p-id="1121"></path><path d="M194.223128 664.973738A35.651917 35.651917 0 0 1 158.540512 629.332054a239.146181 239.146181 0 0 1 103.875605-197.221409 35.66215 35.66215 0 1 1 40.400048 58.788823A167.821881 167.821881 0 0 0 229.864812 629.332054a35.437023 35.437023 0 0 1-10.447935 25.224448 35.887277 35.887277 0 0 1-25.193749 10.417236z m88.372547-218.659632a15.114202 15.114202 0 0 0-8.585522 2.670824A218.690331 218.690331 0 0 0 179.006596 629.332054a15.185834 15.185834 0 0 0 15.196066 15.196067 15.277931 15.277931 0 0 0 10.734461-4.44114 15.103969 15.103969 0 0 0 4.461606-10.754927 188.287964 188.287964 0 0 1 81.864332-155.286405 15.196067 15.196067 0 0 0-8.636687-27.711077z m84.842147 17.488268a35.66215 35.66215 0 0 1-5.11652-70.95591 241.694208 241.694208 0 0 1 35.314226-2.588959 35.66215 35.66215 0 1 1 0 71.334532 168.384698 168.384698 0 0 0-24.89699 1.770317 38.885558 38.885558 0 0 1-4.983491 0.44002h-0.317225z m30.085142-53.078786a221.483951 221.483951 0 0 0-32.23408 2.374066 15.196067 15.196067 0 0 0 2.046608 30.238637 18.757165 18.757165 0 0 0 2.312667-0.214894 187.868409 187.868409 0 0 1 27.987369-2.046608 15.196067 15.196067 0 0 0 0-30.402366z m226.7949 24.702562H624.236A35.66215 35.66215 0 0 1 598.980853 374.52932L868.805692 104.796578a35.66215 35.66215 0 1 1 50.356798 50.489827l-269.712276 269.742975a35.365392 35.365392 0 0 1-25.13235 10.39677z m-0.102331-20.466083h0.102331a15.011872 15.011872 0 0 0 10.673062-4.420674L904.723668 140.755486a15.196067 15.196067 0 1 0-21.417756-21.550785L613.450374 389.019307A15.196067 15.196067 0 0 0 624.236 414.960067z" fill="" p-id="1122"></path><path d="M408.472319 946.116321a330.527241 330.527241 0 1 1 319.270896-245.009713 330.527241 330.527241 0 0 1-319.270896 245.009713z m0-610.298597a279.740656 279.740656 0 1 0 274.327377 225.188312 277.888476 277.888476 0 0 0-274.327377-225.188312zM920.67698 433.880961a25.408642 25.408642 0 0 1-25.429109-25.418875V147.355798a18.624136 18.624136 0 0 0-18.624135-18.624136H615.507215a25.429108 25.429108 0 0 1 0-50.868449h261.116521a69.584682 69.584682 0 0 1 69.482352 69.492585v261.136987A25.408642 25.408642 0 0 1 920.67698 433.880961z m0 0" fill="" p-id="1123"></path><path d="M408.482552 956.349362a340.289563 340.289563 0 1 1 110.905704-18.511572 339.736979 339.736979 0 0 1-110.915937 18.511572z m0.133029-661.177279a320.355598 320.355598 0 1 0-0.153495 640.711196 320.355598 320.355598 0 0 0 0.133029-640.711196z m-0.245593 610.30883A289.922533 289.922533 0 0 1 203.432866 410.549626a288.121517 288.121517 0 0 1 204.292441-84.934244h11.010752v0.194427a289.922533 289.922533 0 0 1-10.325138 579.671104z m-5.11652-559.389215a267.655434 267.655434 0 0 0-185.340849 78.917216 269.476916 269.476916 0 1 0 190.549467-78.917216zM920.67698 444.114002a35.641684 35.641684 0 0 1-35.66215-35.651916V147.355798a8.401327 8.401327 0 0 0-8.401327-8.391094H615.507215a35.66215 35.66215 0 0 1 0-71.334533h261.116521a79.920054 79.920054 0 0 1 79.715393 79.715394v261.14722A35.641684 35.641684 0 0 1 920.67698 444.114002zM615.507215 88.116721a15.196067 15.196067 0 0 0 0 30.402366h261.116521a28.86741 28.86741 0 0 1 28.857177 28.836711v261.136987a15.196067 15.196067 0 1 0 30.392133 0V147.355798a59.413039 59.413039 0 0 0-59.259543-59.259543z" fill="" p-id="1124"></path></svg>