<?xml version="1.0" standalone="no"?><!DOCTYPE svg PUBLIC "-//W3C//DTD SVG 1.1//EN" "http://www.w3.org/Graphics/SVG/1.1/DTD/svg11.dtd"><svg t="1575871946254" class="icon" viewBox="0 0 1365 1024" version="1.1" xmlns="http://www.w3.org/2000/svg" p-id="4876" xmlns:xlink="http://www.w3.org/1999/xlink" width="85.3125" height="64"><defs><style type="text/css"></style></defs><path d="M409.6 443.733333m-136.533333 0a136.533333 136.533333 0 1 0 273.066666 0 136.533333 136.533333 0 1 0-273.066666 0Z" fill="#FDBF99" p-id="4877"></path><path d="M1228.8 0H136.533333a136.533333 136.533333 0 0 0-136.533333 136.533333v750.933334a136.533333 136.533333 0 0 0 136.533333 136.533333h1092.266667a136.533333 136.533333 0 0 0 136.533333-136.533333V136.533333a136.533333 136.533333 0 0 0-136.533333-136.533333zM170.666667 904.533333a221.866667 221.866667 0 0 1 443.733333 0v17.066667H170.666667v-17.066667zM273.066667 443.733333a136.533333 136.533333 0 1 1 136.533333 136.533334 136.533333 136.533333 0 0 1-136.533333-136.533334z m989.866666 409.6a68.266667 68.266667 0 0 1-68.266666 68.266667H716.8v-17.066667a323.584 323.584 0 0 0-155.306667-276.48 238.933333 238.933333 0 1 0-317.098666-11.946666A324.608 324.608 0 0 0 102.4 760.490667V170.666667a68.266667 68.266667 0 0 1 68.266667-68.266667h1024a68.266667 68.266667 0 0 1 68.266666 68.266667z" fill="#666666" p-id="4878"></path><path d="M1143.466667 204.8h-375.466667a51.2 51.2 0 0 0 0 102.4h375.466667a51.2 51.2 0 0 0 0-102.4zM1143.466667 375.466667h-375.466667a51.2 51.2 0 0 0 0 102.4h375.466667a51.2 51.2 0 0 0 0-102.4zM1075.2 546.133333h-307.2a51.2 51.2 0 0 0 0 102.4h307.2a51.2 51.2 0 0 0 0-102.4z" fill="#666666" p-id="4879"></path></svg>