<?xml version="1.0" standalone="no"?><!DOCTYPE svg PUBLIC "-//W3C//DTD SVG 1.1//EN" "http://www.w3.org/Graphics/SVG/1.1/DTD/svg11.dtd"><svg t="1576337033264" class="icon" viewBox="0 0 1024 1024" version="1.1" xmlns="http://www.w3.org/2000/svg" p-id="3760" xmlns:xlink="http://www.w3.org/1999/xlink" width="64" height="64"><defs><style type="text/css"></style></defs><path d="M793.6 1024H230.4a153.6 153.6 0 0 1-153.6-153.6c0-226.2016 183.3984-358.4 409.6-358.4h51.2c226.2016 0 409.6 132.1984 409.6 358.4a153.6 153.6 0 0 1-153.6 153.6z m-358.4-460.8s-184.576 34.3552-256 153.6c-81.2032 135.5776-51.2 204.8-51.2 204.8h51.2s4.8128-52.0192 51.2-153.6 204.8-153.6 204.8-153.6v-51.2z m76.8-102.4a230.4 230.4 0 1 1 0-460.8 230.4 230.4 0 0 1 0 460.8z" p-id="3761" fill="#ffffff"></path></svg>