<?xml version="1.0" standalone="no"?><!DOCTYPE svg PUBLIC "-//W3C//DTD SVG 1.1//EN" "http://www.w3.org/Graphics/SVG/1.1/DTD/svg11.dtd"><svg t="1576337159703" class="icon" viewBox="0 0 1024 1024" version="1.1" xmlns="http://www.w3.org/2000/svg" p-id="5105" xmlns:xlink="http://www.w3.org/1999/xlink" width="64" height="64"><defs><style type="text/css"></style></defs><path d="M546.337039 162.625868c173.306114 0 313.864384 140.559293 313.864384 313.865407 0 9.581216 7.762801 17.463744 17.464767 17.463744 9.582239 0 17.463744-7.762801 17.463744-17.463744-0.118704-192.708-156.203598-348.793918-348.791871-348.793918-9.582239 0-17.464767 7.882528-17.464767 17.464767C528.873296 154.863067 536.755824 162.625868 546.337039 162.625868M546.337039 336.9031c77.008908 0 139.468448 62.454424 139.468448 139.468448 0 9.582239 7.762801 17.464767 17.463744 17.464767 9.582239 0 17.464767-7.762801 17.464767-17.464767 0-96.297206-78.099752-174.395936-174.395936-174.395936-9.582239 0-17.464767 7.882528-17.464767 17.464767C528.873296 329.140299 536.755824 336.9031 546.337039 336.9031M546.337039 511.300059c19.282159 0 34.927487-15.644305 34.927487-34.80776 0-19.282159-15.646352-34.927487-34.927487-34.927487-19.283182 0-34.927487 15.646352-34.927487 34.927487C511.532349 495.65473 527.053857 511.300059 546.337039 511.300059M894.526183 737.721905c0-14.432711-5.821589-27.526937-15.280008-36.989449-2.789533-2.789533-5.944386-5.211698-9.337669-7.277754l-147.598616-114.845655c-9.458419-9.463536-22.557762-15.285125-36.989449-15.285125-11.760858 0-22.556739 4.126994-31.410384 10.79588l-41.111327 41.47767-0.122797-0.12382c-6.426363 7.15905-15.521508 11.643178-25.831318 11.643178-11.762905 0-22.190395-5.941316-28.498054-14.793938l-0.728594 1.088798c-56.880475-41.352827-107.454314-91.199095-148.688437-148.19725 0.367367-0.242524 0.728594-0.60989 1.213641-0.852414-9.095145-6.42534-15.036461-16.854876-15.036461-28.863375 0-10.67206 4.850471-20.129456 12.366655-26.559912l-0.118704 0 40.990576-40.626279c6.668886-8.733918 10.67206-19.524682 10.67206-31.290657 0-14.432711-5.821589-27.532053-15.278985-36.989449L329.006246 152.316058c-2.060939-3.27458-4.364401-6.54916-7.153934-9.214872-9.458419-9.462512-22.557762-15.283078-36.989449-15.283078-69.974701 0-157.175739 81.864496-157.175739 183.012174 0 28.010961 6.42534 54.452169 17.70729 78.223572l-0.604774 0.603751c104.903212 208.839399 279.17942 383.235334 488.137523 488.143663l0.60989-0.60989c23.77038 11.280928 50.206472 17.70729 78.223572 17.70729 101.141538 0 183.007057-87.196944 183.007057-156.933215l0-0.242524L894.526183 737.722928 894.526183 737.721905 894.526183 737.721905zM711.76165 860.092953c-21.830191 0-43.177382-4.850471-63.306838-14.312984-1.822508-0.847298-3.883447-1.575892-5.820566-2.060939C444.466907 742.453672 280.133142 578.242703 178.99058 380.075365c-0.485047-2.059915-1.213641-4.120854-2.060939-6.063089-9.581216-20.010753-14.312984-41.35385-14.312984-63.183018 0-84.530209 73.977875-148.20339 122.004705-148.20339 6.306636 0 10.428513 3.27458 12.370749 5.092995 0.485047 0.485047 1.213641 1.333368 2.302439 3.27458 0.604774 0.971118 1.333368 1.941212 1.943258 2.912329l114.850771 147.5935c0.846274 1.214664 1.818415 2.180666 2.908236 3.27458 1.941212 1.938142 5.092995 6.064113 5.092995 12.370749 0 3.151783-0.847298 6.064113-2.547009 8.729825l-38.807864 38.446637-0.608867 0.603751c-14.065344 13.222139-22.071691 31.652907-22.071691 50.816363 0 18.072611 7.03523 35.170011 19.162432 48.02683 0.48607 0.728594 0.847298 1.333368 1.333368 2.060939 42.811038 59.183937 95.444792 111.693872 156.570965 155.961074 0.485047 0.367367 0.971118 0.727571 1.457188 0.971118 12.850679 12.370749 30.195719 19.525706 48.26526 19.525706 18.191314 0 35.778878-7.272637 48.755424-20.010753 0.728594-0.603751 1.332345-1.213641 1.941212-1.817392l39.050388-39.417755c2.788509-1.694595 5.697769-2.664689 8.728802-2.664689 6.306636 0 10.432607 3.27458 12.370749 5.092995 1.093914 1.088798 2.059915 1.941212 3.27458 2.908236l147.592476 114.850771c0.972141 0.728594 1.943258 1.457188 2.913353 2.060939 1.818415 1.213641 2.664689 1.941212 3.15076 2.304486 1.943258 1.941212 5.092995 6.064113 5.092995 12.370749 0 1.213641 0.12382 2.304486 0.242524 3.517103C857.051687 789.147134 794.473443 860.092953 711.76165 860.092953" p-id="5106" fill="#ffffff"></path></svg>