<?xml version="1.0" standalone="no"?><!DOCTYPE svg PUBLIC "-//W3C//DTD SVG 1.1//EN" "http://www.w3.org/Graphics/SVG/1.1/DTD/svg11.dtd"><svg t="1575872701145" class="icon" viewBox="0 0 1075 1024" version="1.1" xmlns="http://www.w3.org/2000/svg" p-id="2848" xmlns:xlink="http://www.w3.org/1999/xlink" width="67.1875" height="64"><defs><style type="text/css"></style></defs><path d="M749.190297 1023.334844a336.466609 336.466609 0 0 1-74.088146-7.521379c-47.328408-2.558292-110.87639-33.922956-156.311662-60.887358-64.775962-37.709229-137.022138-90.410051-202.41209-148.176293-74.702136-65.287621-140.092089-136.86864-190.541614-206.556523C66.02391 517.304619 27.444862 436.36025 11.788113 359.713811-12.413333 239.883398 0.633958 146.35223 51.083483 81.6786 110.231202 5.032161 198.082961 0.631898 201.818068 0.017908h2.45596c3.735107 0 38.016224 1.279146 79.1024 16.935895 56.691758 22.001314 99.005914 61.552514 122.08171 114.918492 18.061544 41.444336 19.95468 79.716389 5.628243 117.988443-11.870476 31.41583-31.825157 56.538261-51.728671 80.995535-17.396388 21.336158-33.615961 42.058326-42.365321 64.059641 0 1.893136 0 11.921642 14.326437 36.378917 11.819311 20.722168 31.160001 45.844599 54.798622 72.19501 42.979311 48.351725 101.51304 100.489723 155.032516 139.375766 66.055108 47.737735 102.843352 59.659377 114.611497 59.045387 64.775962-2.558292 141.985225-62.780494 164.447031-80.995535a85.958623 85.958623 0 0 1 59.761709-19.443022c87.186603 5.628243 146.334322 34.485781 175.601186 84.730642 18.061544 30.750674 23.024631 69.687883 15.605584 111.13222-5.628243 29.522694-15.605583 50.193696-16.833564 52.700822l-0.61399 1.893136-1.279146 1.893137c-72.860166 115.532482-173.09406 153.804535-243.447099 165.112187a425.239353 425.239353 0 0 1-59.812875 4.400263z m-59.761709-80.995535c1.84197 0.61399 49.784369 11.921642 110.825224 1.893136 79.102399-13.200788 142.599215-56.487095 188.085653-128.682105 7.470214-16.987061 20.517505-60.887358 2.507126-91.689197-19.95468-33.871791-73.525322-44.514287-115.225487-47.68657-3.121117 0-5.628243 0.61399-8.084204 2.507127-42.365321 35.150937-126.430807 94.810314-208.654323 98.545421h-3.069951c-54.235798 0-132.007885-52.086832-188.085652-96.038295-72.860166-57.152251-140.757245-125.560988-181.22943-182.662073-38.630214-54.031134-51.063515-96.70345-38.630214-129.96125 13.098457-33.2578 34.895108-60.887358 54.235797-85.446965 37.965058-47.072579 56.640592-73.42299 36.071922-121.109559-15.554417-35.150937-42.365321-60.273368-80.944369-74.702136a163.73071 163.73071 0 0 0-52.342661-11.972808c-9.312184 0.665156-60.375699 7.572545-94.656817 53.365978-35.457932 47.072579-43.593301 119.318755-24.252611 215.971039 24.917767 123.667852 127.044798 271.178988 279.621352 406.205658 62.268836 54.593959 129.500758 104.22483 190.541614 139.375766 63.496816 37.044073 105.913303 50.193696 124.537671 50.858852h4.349097l4.400263 1.227981z" fill="#4A4A4A" p-id="2849"></path><path d="M783.420248 562.842223h-3.428111c-19.033695-1.84197-32.899639-19.750017-31.211167-40.114024 6.395731-71.018195-8.033038-127.863451-42.058326-169.205455-59.454714-71.632186-160.40493-75.367292-161.581744-75.367293C526.107205 277.541461 511.166778 260.963727 511.678436 240.497388c0.61399-20.364007 16.168408-36.430083 35.202103-35.816093 5.218916 0 132.110216 4.963087 211.161449 100.029231 47.328408 56.79409 66.924928 132.775372 58.840724 225.385555-1.125649 17.908046-16.117242 32.746142-33.462464 32.746142z" fill="#00AA64" p-id="2850"></path><path d="M981.38091 511.676376h-4.297932a36.58358 36.58358 0 0 1-31.722825-40.983843c14.019442-114.457999-9.209852-206.249528-68.459903-272.355803-114.20217-127.300627-326.131107-124.844666-327.973078-124.844666A36.788244 36.788244 0 0 1 511.678436 37.368976a36.83941 36.83941 0 0 1 36.071922-37.351068c2.404795 0 62.268836-1.22798 139.222269 16.526569 45.179443 10.437833 87.3401 25.071265 124.588837 43.490969 47.635403 23.229294 87.954091 53.212481 120.342072 89.335569 74.497473 82.632843 103.815503 194.020891 86.72611 330.480204a38.016224 38.016224 0 0 1-37.299902 31.825157z" fill="#00AA64" p-id="2851"></path></svg>