<?xml version="1.0" standalone="no"?><!DOCTYPE svg PUBLIC "-//W3C//DTD SVG 1.1//EN" "http://www.w3.org/Graphics/SVG/1.1/DTD/svg11.dtd"><svg t="1575795819323" class="icon" viewBox="0 0 1024 1024" version="1.1" xmlns="http://www.w3.org/2000/svg" p-id="4456" xmlns:xlink="http://www.w3.org/1999/xlink" width="64" height="64"><defs><style type="text/css"></style></defs><path d="M938.73372 750.810896c-6.370586-77.19314-46.775025-163.224751-63.591077-206.384038l-43.159287-111.226993c-1.377424-46.315884 12.282031-152.549714-59.458805-285.872884C700.554144 14.061204 556.38376 2.008743 529.581383 0.631319c-26.572806-1.147853-193.413294-2.467885-275.427418 142.391212C172.254626 288.111198 194.293411 433.199865 194.293411 433.199865l-45.627172 112.145276s-21.350073 51.079475-39.715727 113.293128c-18.595225 62.213653-36.788701 160.068154-18.595224 179.811232 18.595225 19.972649 85.342899-91.024773 91.483914-101.011097 0 0 4.763592 52.916041 17.275193 80.579307 10.215895 22.038785 34.492994 77.42271 83.563726 120.811568-23.588387 7.690618-80.349737 28.1798-88.556888 49.24291-10.445466 27.031947 8.149759 29.958973 40.174868 31.795539 31.795539 1.836565 185.033965 5.911445 258.381796-4.30445 0.688712-0.229571 1.606995-0.229571 2.295707-0.459142 7.288869 0.229571 14.061204 0.459141 20.202219 0.459142 4.074879 0 8.838471 0 14.061204-0.229571 0.688712 0 0.918283 0.229571 1.606995 0.229571 73.347831 10.445466 226.586257 6.370586 258.381796 4.30445 31.795539-1.836565 50.620334-4.993162 40.174868-31.795539-8.37933-21.579644-66.747674-42.241004-89.704742-49.47248a221.535702 221.535702 0 0 0 20.890932-20.661361c82.645443-91.024773 75.815716-148.245264 79.259276-181.188656 0 0 69.6747 100.551956 84.654187 103.765945 15.610806 3.386167 20.144827-12.511602 14.233381-89.704741z m0 0" fill="#FFFFFF" p-id="4457"></path><path d="M324.80434 968.09954a229.283713 229.283713 0 0 1-41.781863-29.729402c-23.588387 7.74801-80.349737 28.1798-88.556888 49.24291-10.445466 27.031947 8.149759 29.958973 40.174868 31.795538 31.795539 1.836565 185.033965 5.911445 258.381796-4.30445 0.688712-0.229571 1.606995-0.229571 2.295707-0.459141a358.359825 358.359825 0 0 1-170.51362-46.545455z m415.063782-29.729402c-72.659119 64.50936-162.13429 75.356574-210.458917 76.963569 0.688712 0 0.918283 0.229571 1.606995 0.229571 73.347831 10.445466 226.586257 6.370586 258.381796 4.30445 31.795539-1.836565 50.620334-4.993162 40.174868-31.795539-8.436722-21.809214-66.747674-42.470575-89.704742-49.702051z m0 0" fill="#E5A627" p-id="4458"></path><path d="M874.970465 544.197287l-43.159287-111.284385s-296.31835 93.779621-637.517767 0l-45.627172 112.202668s62.672795 22.268356 163.224751 38.166125v150.770541s79.890595 10.904607 140.095505 3.386168v-139.636364c122.1316 6.772335 270.376864-2.984419 422.98397-53.604753z m0 0" fill="#CE2D22" p-id="4459"></path><path d="M772.352373 147.326981C700.611537 14.290775 556.441152 2.238314 529.638776 0.86089c-26.572806-1.377424-193.413294-2.697455-275.427419 142.333819-81.956731 145.14606-59.917946 290.234727-59.917946 290.234727 342.634234 95.616187 637.517767 0 637.517767 0-1.377424-46.602847 12.511602-153.066248-59.458805-286.102455z m-343.782087 144.170385c-31.106827 0-56.072638-36.099989-56.072638-80.579307s25.195382-80.6367 56.072638-80.6367c31.106827 0 56.072638 36.099989 56.072637 80.579307s-24.965811 80.6367-56.072637 80.6367z m167.357023 0c-31.106827 0-56.072638-36.099989-56.072638-80.579307s25.195382-80.6367 56.072638-80.6367c31.106827 0 56.072638 36.099989 56.072637 80.579307s-25.195382 80.6367-56.072637 80.6367z m0 0" fill="#070001" p-id="4460"></path><path d="M420.879668 217.460823c0 17.734335 10.904607 32.25468 24.277099 32.25468 13.372492 0 24.277099-14.290775 24.277099-32.25468 0-17.963905-10.904607-32.25468-24.277099-32.25468-13.372492 0.057393-24.277099 14.577738-24.277099 32.25468z m175.047641-20.20222c16.12734 0 38.395696 8.37933 33.574711 21.579644-3.845309 10.445466-22.957068-3.386167-29.729403-4.534021-8.6089-1.147853-21.350073-2.066136-31.795538 10.675036-7.001906 8.37933-17.906513 7.461047-14.061204-4.074879 4.30445-12.970743 20.661361-23.64578 42.011434-23.64578z m0 0" fill="#070001" p-id="4461"></path><path d="M318.032005 359.163322c0 13.602063 101.240668 64.279789 193.872436 63.591078 92.631768-0.688712 195.938572-50.849905 195.938572-65.599821 0-14.520345-74.266114-40.404439-197.775137-40.404439-123.509024-0.057393-192.03587 22.440534-192.035871 42.413182z m0 0" fill="#E5A627" p-id="4462"></path><path d="M938.73372 750.810896c-6.370586-77.19314-46.775025-163.224751-63.591077-206.384038-39.945298 13.142921-79.947988 23.588387-118.745432 31.795539 3.386167 17.275193 7.74801 54.924784 6.141016 126.895191-2.697455 107.381684-37.706984 194.790719-123.738595 245.411052-86.031611 50.620334-237.261294 39.486156-303.320255-43.159287-62.213653-77.652281-82.415873-135.561484-67.436386-329.66349-74.897433-14.749916-119.434144-30.418115-119.434144-30.418115s-21.350073 51.079475-39.715727 113.293129c-18.595225 62.213653-36.788701 160.068154-18.595225 179.811232 18.595225 19.972649 85.342899-91.024773 91.483914-101.011098 0 0 4.763592 52.916041 17.275194 80.579307 12.511602 27.720659 47.463737 107.381684 125.575159 150.540971 77.881852 43.159287 144.170384 47.234167 190.715839 47.234167 46.545455 0 162.823002-6.829728 245.411053-97.854501s75.815716-148.245264 79.259276-181.188656c0 0 69.6747 100.551956 84.654187 103.765946 15.438628 3.44356 19.972649-12.454209 14.061203-89.647349z m0 0" fill="#070001" p-id="4463"></path></svg>