<?xml version="1.0" standalone="no"?><!DOCTYPE svg PUBLIC "-//W3C//DTD SVG 1.1//EN" "http://www.w3.org/Graphics/SVG/1.1/DTD/svg11.dtd"><svg t="1575871976778" class="icon" viewBox="0 0 1024 1024" version="1.1" xmlns="http://www.w3.org/2000/svg" p-id="990" xmlns:xlink="http://www.w3.org/1999/xlink" width="64" height="64"><defs><style type="text/css"></style></defs><path d="M781.653333 453.973333V232.106667L856.746667 307.2c6.826667 6.826667 17.066667 10.24 27.306666 10.24 10.24 0 20.48-3.413333 27.306667-10.24 17.066667-13.653333 17.066667-37.546667 0-54.613333l-116.053333-112.64c-6.826667-6.826667-20.48-23.893333-47.786667-27.306667-13.653333-3.413333-37.546667 0-61.44 23.893333-30.72 30.72-119.466667 116.053333-119.466667 116.053334-6.826667 6.826667-10.24 17.066667-10.24 27.306666 0 20.48 17.066667 37.546667 40.96 37.546667 10.24 0 20.48-3.413333 27.306667-10.24 0 0 40.96-37.546667 75.093333-71.68v221.866667c-116.053333 17.066667-204.8 116.053333-204.8 232.106666 0 129.706667 109.226667 235.52 245.76 235.52s245.76-105.813333 245.76-235.52c3.413333-119.466667-85.333333-215.04-204.8-235.52z m0 0" fill="#EB6877" p-id="991"></path><path d="M440.32 672.426667H320.853333v-102.4c116.053333-17.066667 204.8-116.053333 204.8-232.106667 0-129.706667-109.226667-235.52-245.76-235.52S34.133333 208.213333 34.133333 337.92c0 116.053333 88.746667 211.626667 208.213334 232.106667v102.4H119.466667c-20.48 0-40.96 17.066667-40.96 37.546666 0 20.48 17.066667 37.546667 40.96 37.546667h122.88v136.533333c0 20.48 17.066667 37.546667 40.96 37.546667 20.48 0 40.96-17.066667 40.96-37.546667v-136.533333H443.733333c20.48 0 40.96-17.066667 40.96-37.546667-6.826667-20.48-23.893333-37.546667-44.373333-37.546666z" fill="#4B9FFA" p-id="992"></path><path d="M747.52 542.72h3.413333c78.506667 0 139.946667 64.853333 139.946667 139.946667s-61.44 139.946667-139.946667 139.946666h-3.413333c-78.506667 0-139.946667-64.853333-139.946667-139.946666s64.853333-139.946667 139.946667-139.946667z" fill="#FBE1E4" p-id="993"></path><path d="M269.653333 197.973333H273.066667c78.506667 0 139.946667 64.853333 139.946666 139.946667S351.573333 477.866667 273.066667 477.866667h-3.413334c-78.506667 0-139.946667-64.853333-139.946666-139.946667s64.853333-139.946667 139.946666-139.946667z" fill="#DBECFE" p-id="994"></path></svg>