<?xml version="1.0" standalone="no"?><!DOCTYPE svg PUBLIC "-//W3C//DTD SVG 1.1//EN" "http://www.w3.org/Graphics/SVG/1.1/DTD/svg11.dtd"><svg t="1575795806050" class="icon" viewBox="0 0 1194 1024" version="1.1" xmlns="http://www.w3.org/2000/svg" p-id="3560" xmlns:xlink="http://www.w3.org/1999/xlink" width="74.625" height="64"><defs><style type="text/css"></style></defs><path d="M892.201467 469.360603c-15.87122-7.93561-31.742439-7.93561-23.80683-30.71849 15.87122-47.613659 23.892159-86.267759 0-118.010197-38.6541-54.610648-148.643358-54.610648-265.629606 0 0 0-38.6541 15.87122-31.74244-14.84727a125.860479 125.860479 0 0 0 0-140.793078c-62.460929-62.460929-241.908106 0-390.636793 155.640348A536.293632 536.293632 0 0 0 0 656.658061c0 198.304917 249.843716 321.264205 500.626053 321.264204 328.175865 0 538.341532-188.406737 538.341531-336.111474a176.460657 176.460657 0 0 0-146.766117-172.450188z m-391.575414 430.229514c-196.257017 22.78288-367.768585-70.396539-383.639805-205.216577-15.87122-134.820038 132.857468-248.819766 336.026146-263.667036 203.254007-14.932599 367.768585 70.31121 382.701183 203.168677 14.84727 132.857468-141.731698 241.908106-335.087524 265.714936z" fill="#D52B2A" p-id="3561"></path><path d="M1109.278794 99.544119A320.240255 320.240255 0 0 0 805.080417 8.327271a57.511839 57.511839 0 0 0-38.6541 54.610648 56.487889 56.487889 0 0 0 62.460929 36.6062 219.125226 219.125226 0 0 1 211.104288 70.396539c52.306762 58.023814 71.335159 138.830508 50.600179 214.176136-5.631723 23.209526 8.532914 46.675038 31.742439 52.47742a44.627139 44.627139 0 0 0 54.525319-29.69454A297.372046 297.372046 0 0 0 1109.278794 99.544119" fill="#E89214" p-id="3562"></path><path d="M991.353925 211.581277a169.548997 169.548997 0 0 0-147.704738-46.589709 39.678049 39.678049 0 0 0-23.806829 65.447449 40.61667 40.61667 0 0 0 38.654099 12.79937c25.940058-8.532914 54.43999 0.682633 70.396539 22.868209 15.956549 19.625702 21.844259 45.736418 15.87122 70.396539a37.118175 37.118175 0 1 0 70.396539 23.80683 132.857468 132.857468 0 0 0-23.80683-148.728688" fill="#E89214" p-id="3563"></path><path d="M515.473323 523.885922a219.125226 219.125226 0 0 0-241.822777 110.074588 145.742168 145.742168 0 0 0 0 126.799099c18.516423 41.640619 55.037294 72.615096 99.067129 84.305189a213.152187 213.152187 0 0 0 257.779326-110.074588A151.715207 151.715207 0 0 0 515.473323 523.971251z m-70.31121 219.039897a75.345629 75.345629 0 0 1-93.264748 31.74244 55.46394 55.46394 0 0 1-23.7215-80.294719 75.345629 75.345629 0 0 1 86.182429-31.742439c15.956549 4.522444 28.841249 16.212536 34.728959 31.742439a48.637609 48.637609 0 0 1 0 46.589709l-3.92514 1.96257z m63.399549-78.332148a31.742439 31.742439 0 0 1-31.742439 15.871219c-15.87122-7.93561-15.87122-15.87122-7.93561-30.718489a57.511839 57.511839 0 0 1 31.74244-15.87122c6.91166 7.93561 14.84727 15.87122 6.91166 30.71849h1.023949z" fill="#040000" p-id="3564"></path></svg>