<?xml version="1.0" standalone="no"?><!DOCTYPE svg PUBLIC "-//W3C//DTD SVG 1.1//EN" "http://www.w3.org/Graphics/SVG/1.1/DTD/svg11.dtd"><svg t="1575796074193" class="icon" viewBox="0 0 1216 1024" version="1.1" xmlns="http://www.w3.org/2000/svg" p-id="22469" xmlns:xlink="http://www.w3.org/1999/xlink" width="76" height="64"><defs><style type="text/css"></style></defs><path d="M432 736C672 736 864 572.8 864 368S672 0 432 0 0 163.2 0 368c0 118.4 67.2 227.2 172.8 294.4 9.6 6.4-6.4 44.8-44.8 121.6 83.2-54.4 134.4-76.8 150.4-70.4 48 12.8 99.2 22.4 153.6 22.4z" fill="#3BB034" p-id="22470"></path><path d="M864 288c19.2 0 32 16 32 32 0 19.2-16 32-32 32h-16C662.4 352 512 483.2 512 640c0 28.8 6.4 57.6 12.8 83.2 6.4 16-3.2 35.2-19.2 41.6-16 6.4-35.2-3.2-41.6-19.2-12.8-32-19.2-67.2-19.2-105.6 0-195.2 179.2-352 400-352h19.2z" fill="#FFFFFF" p-id="22471"></path><path d="M848 960c48 0 96-9.6 137.6-22.4 9.6-3.2 44.8 19.2 102.4 70.4-22.4-67.2-28.8-105.6-22.4-108.8 89.6-57.6 150.4-150.4 150.4-259.2 0-176-163.2-320-368-320S480 464 480 640s163.2 320 368 320z" fill="#3BB034" p-id="22472"></path><path d="M288 256m-64 0a64 64 0 1 0 128 0 64 64 0 1 0-128 0Z" fill="#FFFFFF" p-id="22473"></path><path d="M576 256m-64 0a64 64 0 1 0 128 0 64 64 0 1 0-128 0Z" fill="#FFFFFF" p-id="22474"></path><path d="M976 560m-48 0a48 48 0 1 0 96 0 48 48 0 1 0-96 0Z" fill="#FFFFFF" p-id="22475"></path><path d="M720 560m-48 0a48 48 0 1 0 96 0 48 48 0 1 0-96 0Z" fill="#FFFFFF" p-id="22476"></path></svg>