<?xml version="1.0" standalone="no"?><!DOCTYPE svg PUBLIC "-//W3C//DTD SVG 1.1//EN" "http://www.w3.org/Graphics/SVG/1.1/DTD/svg11.dtd"><svg t="1575797026204" class="icon" viewBox="0 0 1330 1024" version="1.1" xmlns="http://www.w3.org/2000/svg" p-id="23441" xmlns:xlink="http://www.w3.org/1999/xlink" width="83.125" height="64"><defs><style type="text/css"></style></defs><path d="M922.004706 491.378965c0 8.749058-5.433818 16.594515-13.65781 19.772382l-111.61307 43.021799a21.668114 21.668114 0 0 1-19.891438-2.24374c-5.873408-3.959361-9.365705-10.51047-9.365705-20.471452v-119.971381c0.140425-0.253375 0.335798-0.369378 0.479275-0.610542 1.709516-11.02943 11.46902-19.097734 22.754878-18.133078 10.092249 0.860863 17.543907 8.703267 18.954257 18.307083 0.2259 0.363272 0.509802 0.558645 0.726544 0.946339v88.424708l68.667589-23.511949V385.318769c0.097687-0.250322 0.268638-0.445695 0.37243-0.692964-0.03358-0.87918-0.37243-1.675936-0.296113-2.573432a21.411686 21.411686 0 0 1 23.154782-19.50985c10.901216 0.931076 18.835202 9.967088 19.219843 20.627141l0.491486 0.705175v107.504126z" fill="#1296db" p-id="23442"></path><path d="M1087.522474 146.230766L558.140361 0.796756c-0.18011-0.042738-0.363272-0.073265-0.543382-0.119055-0.238111-0.042738-0.436537-0.119056-0.662437-0.164846a15.660386 15.660386 0 0 0-2.28953-0.348009 17.968233 17.968233 0 0 0-1.190556-0.091581c-0.256427-0.030527-0.528118-0.030527-0.769282-0.042738-0.497591 0-1.022657 0-1.520248 0.027474l-0.540329 0.045791c-0.528118 0.045791-1.03792 0.106845-1.566039 0.195373-0.18011 0.015264-0.344956 0.061054-0.525066 0.091581a26.848557 26.848557 0 0 0-1.868256 0.40601L19.722236 145.913284l-0.119056 0.045791c-0.106845 0.015264-0.210637 0.061054-0.317482 0.091581l-0.708228 0.2259a25.642738 25.642738 0 0 0-0.781492 0.271691c-0.195373 0.061054-0.329692 0.134319-0.512855 0.210637-0.167899 0.061054-0.329692 0.137372-0.497591 0.195373-0.271691 0.119056-0.528118 0.256427-0.79981 0.375483-0.241164 0.103792-0.436537 0.2259-0.662437 0.329692a3.907465 3.907465 0 0 0-0.256427 0.137372c-0.271691 0.149583-0.540329 0.314429-0.81202 0.467064-0.241164 0.149583-0.467064 0.283902-0.708228 0.436537a11.417124 11.417124 0 0 0-0.949392 0.677701c-0.210637 0.149583-0.390746 0.302218-0.616647 0.451801-0.042738 0.042738-0.119056 0.091581-0.164846 0.137372-0.119056 0.103792-0.241164 0.2259-0.348009 0.314429-0.283902 0.241164-0.570856 0.482328-0.85781 0.738755-0.091581 0.073265-0.164846 0.164846-0.256428 0.256427-0.167899 0.149583-0.317482 0.317482-0.467064 0.482328-0.195373 0.2259-0.40601 0.421274-0.616647 0.647174l-0.302218 0.344955c-0.119056 0.149583-0.256427 0.317482-0.378535 0.497592a7.537133 7.537133 0 0 0-0.512855 0.662437 3.773146 3.773146 0 0 0-0.314429 0.451801c-0.106845 0.134319-0.213689 0.283902-0.317482 0.421273-0.149583 0.256427-0.317482 0.512855-0.467064 0.781493a4.023468 4.023468 0 0 0-0.314429 0.558646c-0.030527 0.030527-0.045791 0.061054-0.061054 0.091581-0.091581 0.164846-0.183162 0.314429-0.256427 0.494538-0.119056 0.241164-0.256427 0.482328-0.348009 0.723492-0.073265 0.119056-0.134319 0.241164-0.210636 0.360219-0.042738 0.103792-0.073265 0.2259-0.134319 0.329693-0.076318 0.195373-0.149583 0.390746-0.225901 0.573909-0.119056 0.302218-0.2259 0.570856-0.329692 0.873074-0.045791 0.149583-0.091581 0.317482-0.137372 0.482327-0.030527 0.106845-0.091581 0.195373-0.119056 0.317482-0.030527 0.103792-0.042738 0.195373-0.061054 0.283902-0.073265 0.241164-0.134319 0.482328-0.2259 0.723491-0.045791 0.238111-0.106845 0.494539-0.149583 0.735703-0.030527 0.18011-0.091581 0.348009-0.119055 0.528118-0.030527 0.183162-0.061054 0.378536-0.076318 0.573909a159.3513 159.3513 0 0 1-0.137372 0.918864c0 0.042738-0.015264 0.103792-0.015263 0.149583-0.030527 0.286954-0.045791 0.558645-0.061054 0.842547-0.015264 0.317482-0.030527 0.634963-0.030527 0.949392 0 0.091581-0.015264 0.18011-0.015264 0.271691V824.011066c0 9.200859 6.007727 17.363797 14.891104 20.193656l562.68104 178.754305 0.027474 0.015263c0.271691 0.091581 0.512855 0.149583 0.769283 0.210637 0.360219 0.119056 0.769282 0.210637 1.114238 0.302218 0.271691 0.061054 0.528118 0.103792 0.799809 0.149583 0.40601 0.073265 0.81202 0.149583 1.233293 0.195373 0.241164 0.030527 0.451801 0.061054 0.677701 0.073265 0.708228 0.030527 1.355402 0.076318 2.002576 0.076318 0.677701 0 1.355402-0.045791 2.033103-0.106845 0.283902-0.030527 0.558645-0.061054 0.827283-0.106845 0.375483-0.061054 0.781493-0.103792 1.156976-0.180109 0.317482-0.061054 0.650227-0.149583 0.979919-0.225901 0.314429-0.076318 0.616647-0.137372 0.918865-0.241164 0.344956-0.091581 0.705175-0.210637 1.03792-0.317481 0.152635-0.042738 0.302218-0.073265 0.436537-0.149583l493.592178-178.754305c8.434629-3.05576 14.079084-11.008061 14.079084-19.906701l0.030527-657.33327c0.009158-9.527498-6.419843-17.882757-15.715335-20.428714zM566.694046 973.660863L46.946276 808.533842V194.686382L566.694046 345.3741v628.286763z m493.576914-164.479847l-450.643645 163.216027V329.503077c0-9.411495-6.279418-17.7057-15.419222-20.358503L103.686939 166.91896l126.742284-34.755068 537.050513 140.003244v71.405867c0 11.881135 9.216122 19.009206 19.58922 19.897543 11.780396 1.007393 23.325733-8.871166 23.325734-21.781064V255.902313c0.018316-6.618269-6.502266-15.019318-15.871023-17.519484L311.097003 109.714286l58.199857-16.020606 509.762366 136.892535V314.700501c0.061054 0.134319-0.140425 0.265585-0.079371 0.399904-0.305271 11.25533 8.306415 20.975149 19.668591 21.94591a21.408633 21.408633 0 0 0 23.154782-19.509849c0.024422-0.274744 0.109897-1.117291 0.201478-1.254663v-101.929883c0-9.561078-6.502266-17.96518-15.840496-20.462294L450.144749 71.42113l102.259576-28.158168 507.897162 139.51481-0.030527 626.403244z" fill="#1296db" p-id="23443"></path><path d="M902.293378 362.545576a21.411686 21.411686 0 0 0-23.154782 19.50985c-0.076318 0.897496 0.021369 3.016074-0.07937 3.263343v91.590365l-68.667589 23.511949s0.076318-75.960506 0-88.424708-9.588552-18.392559-19.680801-19.253422c-11.285857-0.964655-23.234152 7.073122-23.234153 18.74362v119.971381c0 9.964035 3.492297 16.512092 9.365705 20.471452a21.658955 21.658955 0 0 0 19.891438 2.24374l111.61307-43.021799c8.223992-3.174815 13.657811-11.020272 13.65781-19.772382V383.877892c0-14.069926-8.810112-20.40124-19.711328-21.332316z" fill="#1296db" p-id="23444"></path></svg>