<?xml version="1.0" standalone="no"?><!DOCTYPE svg PUBLIC "-//W3C//DTD SVG 1.1//EN" "http://www.w3.org/Graphics/SVG/1.1/DTD/svg11.dtd"><svg t="1575797068159" class="icon" viewBox="0 0 1029 1024" version="1.1" xmlns="http://www.w3.org/2000/svg" p-id="25023" xmlns:xlink="http://www.w3.org/1999/xlink" width="64.3125" height="64"><defs><style type="text/css"></style></defs><path d="M5.12 977.92c0 25.6 20.48 40.96 40.96 40.96h936.96c25.6 0 40.96-20.48 40.96-40.96V256h-1024v721.92z m491.52-762.88h-491.52l102.4-179.2c15.36-20.48 40.96-30.72 66.56-30.72h322.56v209.92z m532.48 0h-491.52V0h322.56c25.6 0 51.2 15.36 66.56 30.72l102.4 184.32z" fill="#272636" p-id="25024"></path><path d="M588.8 634.88l143.36-143.36-51.2-51.2-143.36 143.36-143.36-143.36-51.2 51.2 143.36 143.36-143.36 143.36 51.2 51.2 143.36-143.36 143.36 143.36 51.2-51.2-143.36-143.36z" fill="#FFFFFF" p-id="25025"></path></svg>