<?xml version="1.0" standalone="no"?><!DOCTYPE svg PUBLIC "-//W3C//DTD SVG 1.1//EN" "http://www.w3.org/Graphics/SVG/1.1/DTD/svg11.dtd"><svg t="1575797059302" class="icon" viewBox="0 0 1029 1024" version="1.1" xmlns="http://www.w3.org/2000/svg" p-id="24895" xmlns:xlink="http://www.w3.org/1999/xlink" width="64.3125" height="64"><defs><style type="text/css"></style></defs><path d="M5.12 977.92c0 25.6 20.48 40.96 40.96 40.96h936.96c25.6 0 40.96-20.48 40.96-40.96V256h-1024v721.92z m0-762.88l102.4-179.2c15.36-20.48 40.96-30.72 66.56-30.72h322.56v215.04h-491.52z m532.48 0V0h322.56c25.6 0 51.2 15.36 66.56 30.72l102.4 179.2h-491.52z" fill="#272636" p-id="24896"></path><path d="M363.52 532.48V460.8l-128 97.28 128 97.28v-71.68h317.44c40.96 0 76.8 35.84 76.8 81.92v25.6c0 46.08-35.84 81.92-76.8 81.92h-440.32v51.2h440.32c66.56 0 117.76-56.32 117.76-122.88v-35.84c0-71.68-51.2-122.88-117.76-122.88h-317.44z" fill="#FFFFFF" p-id="24897"></path></svg>